<svg xmlns="http://www.w3.org/2000/svg" xmlns:xlink="http://www.w3.org/1999/xlink" version="1.1" x="0px" y="0px" viewBox="0 0 96 120" style="enable-background:new 0 0 96 96;" xml:space="preserve"><g><ellipse style="" cx="43.075" cy="10.35" rx="8.289" ry="8.35" fill-rule="evenodd" clip-rule="evenodd"/><path style="" d="M54.75,86.747c0,3.895-2.891,7.053-6.458,7.053   c-3.567,0-6.459-3.158-6.459-7.053c0-3.895,3.026-7.567,6.458-15.281C51.186,79.18,54.75,82.852,54.75,86.747z" fill-rule="evenodd" clip-rule="evenodd"/><path style="" d="M33.832,19.28c-1.46-5.555-6.234-9.636-11.919-9.636   c-5.684,0-10.458,4.08-11.918,9.636H33.832z" fill-rule="evenodd" clip-rule="evenodd"/><path style="" d="M2.261,23.652l34.06,33.35C36.755,57.427,37,58.009,37,58.617v9.586   c0,0.571,0.456,1.034,1.026,1.034c3.689,0.004,16.253-0.001,19.945-0.003c0.571,0,1.028-0.463,1.028-1.034v-9.577   c0-0.611,0.248-1.197,0.687-1.623l34.383-33.346c0.645-0.625,0.202-1.718-0.696-1.718H2.96C2.064,21.938,1.62,23.025,2.261,23.652z   " fill-rule="evenodd" clip-rule="evenodd"/><path style="" d="M88.026,18.701c-1.819-7.884-8.617-13.932-17.029-14.358   c-9.052-0.459-16.876,5.756-18.875,14.358H88.026z" fill-rule="evenodd" clip-rule="evenodd"/></g><text x="0" y="111" fill="#000000" font-size="5px" font-weight="bold" font-family="'Helvetica Neue', Helvetica, Arial-Unicode, Arial, Sans-serif">Created by Kirill Ulitin</text><text x="0" y="116" fill="#000000" font-size="5px" font-weight="bold" font-family="'Helvetica Neue', Helvetica, Arial-Unicode, Arial, Sans-serif">from the Noun Project</text></svg>