<svg xmlns:dc="http://purl.org/dc/elements/1.1/" xmlns:cc="http://creativecommons.org/ns#" xmlns:rdf="http://www.w3.org/1999/02/22-rdf-syntax-ns#" xmlns:svg="http://www.w3.org/2000/svg" xmlns="http://www.w3.org/2000/svg" version="1.1" viewBox="0 0 100.00001 125" xml:space="preserve" x="0px" y="0px"><path d="M 18.3125,5 C 10.966146,5 5,10.678088 5,17.6875 c 0,1.949589 0.4606298,3.821022 1.28125,5.46875 3.5714667,6.046587 10.24558,9.672989 12.03125,20.5625 C 21.36305,32.829239 26.776518,29.202837 30.34375,23.15625 31.16648,21.508522 31.625,19.641589 31.625,17.6875 31.625,10.678088 25.652294,5 18.3125,5 z M 77.625,5 C 68.029897,5 60.25,12.438728 60.25,21.59375 c 0,2.546292 0.584435,4.94166 1.65625,7.09375 4.664709,7.897536 13.386479,12.652234 15.71875,26.875 C 81.609337,41.339734 88.684572,36.585036 93.34375,28.6875 94.418319,26.53541 95,24.145802 95,21.59375 95,12.438728 87.211538,5 77.625,5 z m -59.3125,6.0625 c 3.339424,0 6.03125,2.693854 6.03125,6.03125 0,3.337036 -2.691826,6.0625 -6.03125,6.0625 -3.337303,0 -6.0625,-2.725464 -6.0625,-6.0625 0,-3.337396 2.725197,-6.03125 6.0625,-6.03125 z m 28.03125,1.75 c -4.224895,-0.0108 -8.453536,0.620754 -12.5,1.875 0.155881,0.729543 0.246263,1.463106 0.28125,2.21875 0.004,0.0432 -0.0035,0.113049 0,0.15625 6.320203,-2.05831 13.166154,-2.471876 19.6875,-1.15625 1.503426,0.303302 2.994216,0.707618 4.4375,1.1875 0.196606,-0.769144 0.421711,-1.516676 0.71875,-2.25 -4.097788,-1.333086 -8.350041,-2.01973 -12.625,-2.03125 z M 77.625,12.90625 c 4.361637,0 7.90625,3.547349 7.90625,7.90625 0,4.35854 -3.544613,7.875 -7.90625,7.875 -4.358865,0 -7.90625,-3.51646 -7.90625,-7.875 0,-4.358901 3.547385,-7.90625 7.90625,-7.90625 z m -32.78125,4.9375 c -4.834529,4.823843 -9.204471,10.119812 -12.375,16.125 4.018162,1.146605 8.148274,1.824349 12.375,1.90625 l 0,-5.3125 0,-12.71875 z m 2.59375,0.125 0,2.21875 0,15.65625 c 4.547794,-0.17532 9.056545,-0.946364 13.40625,-2.28125 -0.446302,-0.768784 -0.920138,-1.504977 -1.40625,-2.25 -2.337401,-3.583457 -5.0731,-6.967596 -8.125,-9.96875 -1.134209,-1.115105 -2.356871,-2.156885 -3.59375,-3.15625 -0.09961,-0.08046 -0.181158,-0.13937 -0.28125,-0.21875 z m -6.5,0.21875 C 38.581983,18.526982 36.249003,19.078676 34,19.875 c -0.618805,3.735378 -2.908177,7.112137 -5.3125,9.96875 -0.650557,0.706503 -1.270746,1.431497 -1.84375,2.1875 1.046678,0.417782 2.090741,0.830018 3.15625,1.1875 2.875413,-5.548885 6.655973,-10.484249 10.9375,-15.03125 z m 10.78125,0.03125 c 2.302311,2.06209 4.391011,4.393289 6.3125,6.8125 -0.29773,-1.468267 -0.421051,-3.003763 -0.3125,-4.53125 0.01154,-0.264241 0.0385,-0.519348 0.0625,-0.78125 -1.384896,-0.474662 -2.808798,-0.856549 -4.25,-1.15625 -0.606028,-0.126001 -1.201475,-0.249969 -1.8125,-0.34375 z M 10.8125,32.9375 C 7.0906089,39.221688 5.0208693,46.459616 5,53.90625 5.0392276,67.903475 12.295366,81.062156 24,88.59375 23.719728,87.449845 23.475458,86.305916 23.21875,85.15625 13.450749,77.922017 7.4118156,66.259347 7.375,53.90625 7.3946399,47.32452 9.0776153,40.770576 12.28125,35.03125 11.820821,34.313226 11.326419,33.617723 10.8125,32.9375 z m 14.53125,1.25 C 23.9095,36.43535 22.7372,38.850559 21.75,41.34375 22.857614,41.095529 24.007872,40.98002 25.15625,41 c 0.540651,-0.0162 1.054633,-0.008 1.59375,0.03125 0.425336,-1.365667 0.942987,-2.709864 1.5,-4.03125 0.207276,-0.492842 0.403865,-0.985628 0.625,-1.46875 -1.189307,-0.407702 -2.365357,-0.865848 -3.53125,-1.34375 z M 62.0625,35.84375 C 60.730365,36.272153 59.402551,36.679958 58.03125,37 54.560125,37.810004 51.006298,38.310599 47.4375,38.4375 l 0,7.375 0,6.8125 19.09375,0 c -0.07833,-3.266296 -0.59769,-6.502815 -1.5625,-9.65625 -0.752054,-2.457732 -1.739485,-4.841329 -2.90625,-7.125 z m -30.75,0.46875 c -0.751759,1.632787 -1.412409,3.324592 -1.96875,5.0625 5.651648,1.223826 10.43834,5.720555 12.0625,11.25 l 3.4375,0 0,-14.15625 c -0.463547,-0.009 -0.911777,-0.04054 -1.375,-0.0625 C 39.308104,38.210049 35.246206,37.474585 31.3125,36.3125 z M 13.84375,37.78125 C 11.775031,41.944489 10.526345,46.475938 10.15625,51.125 11.339673,48.300246 13.365612,45.799649 15.875,44 15.529548,41.82667 14.815727,39.752619 13.84375,37.78125 z m 52,0.09375 c 1.087729,2.554932 1.955046,5.201127 2.5,7.9375 0.447284,2.24587 0.698321,4.528649 0.75,6.8125 l 0.65625,0 4.6875,0 C 73.09257,47.009874 69.549014,42.263061 65.84375,37.875 z m 20,5.3125 c -0.611067,0.970385 -1.183842,1.986595 -1.71875,3 2.745355,13.815424 -2.266061,28.516988 -13.25,37.53125 -5.685228,4.665622 -12.510018,7.685216 -19.8125,8.625 -7.395804,0.952385 -14.999732,-0.260885 -21.71875,-3.5 -0.79953,-0.385382 -1.579002,-0.812958 -2.34375,-1.25 -0.22456,0.788404 -0.453731,1.582636 -0.65625,2.375 12.866132,7.101393 29.056287,6.622955 41.53125,-1.125 12.522865,-7.778196 19.992421,-22.043391 19.375,-36.75 -0.127494,-3.035894 -0.615722,-6.020836 -1.40625,-8.90625 z M 25.53125,43.5 c -7.697719,0 -13.96875,5.967746 -13.96875,13.3125 0,2.042649 0.48388,3.992181 1.34375,5.71875 3.742287,6.335849 10.753926,10.120997 12.625,21.53125 3.196455,-11.410253 8.855901,-15.195401 12.59375,-21.53125 0.86208,-1.726569 1.34375,-3.671421 1.34375,-5.71875 0,-7.344754 -6.246649,-13.3125 -13.9375,-13.3125 z m 0,6.34375 c 3.499147,0 6.3125,2.846873 6.3125,6.34375 0,3.496696 -2.813353,6.34375 -6.3125,6.34375 -3.496919,0 -6.34375,-2.847054 -6.34375,-6.34375 0,-3.496877 2.846831,-6.34375 6.34375,-6.34375 z m 56.53125,0.75 c -0.283879,0.674643 -0.580643,1.346526 -0.84375,2.03125 l 0.96875,0 c -0.02686,-0.680224 -0.06038,-1.353907 -0.125,-2.03125 z M 41.90625,55.1875 c 0.03267,0.307801 0.08125,0.626279 0.09375,0.9375 0.412504,5.141363 -2.62545,9.699062 -5.8125,13.4375 -0.27764,0.305641 -0.517184,0.623039 -0.78125,0.9375 3.104166,-0.660423 6.239744,-1.07921 9.4375,-1.15625 l 0,-8.15625 0,-6 -2.9375,0 z m 5.53125,0 0,14.1875 c 0.538012,0.0162 1.054127,0.02884 1.59375,0.0625 4.304737,0.269821 8.654616,1.099804 12.78125,2.40625 2.479559,-4.840042 4.242041,-10.104655 4.625,-15.5 0.02708,-0.379802 0.04638,-0.776988 0.0625,-1.15625 l -14.375,0 -4.6875,0 z m 21.625,0 c -0.07011,1.610287 -0.226165,3.218592 -0.5,4.8125 -0.761198,4.43036 -2.321469,8.669881 -4.3125,12.6875 1.874014,0.688144 3.682736,1.481796 5.5,2.3125 1.3839,0.632343 2.817711,1.238916 4.1875,1.9375 2.192734,-2.638813 4.004671,-5.587745 5.375,-8.75 1.801808,-4.156759 2.738901,-8.571439 2.875,-13 l -1.90625,0 C 79.128056,58.505635 78.167337,61.899824 77.21875,65.25 76.306164,61.936725 75.710283,58.542536 75,55.1875 l -5.9375,0 z m -57,10.65625 c 0.196347,0.563403 0.399947,1.133817 0.625,1.6875 1.400475,3.447016 3.343331,6.608137 5.6875,9.40625 0.548929,-0.297361 1.07009,-0.588978 1.625,-0.875 -1.218017,-2.077929 -2.680866,-4.012312 -4.25,-5.8125 -1.323446,-1.339746 -2.598786,-2.820262 -3.6875,-4.40625 z m 32.78125,6.0625 c -4.029951,0.02214 -7.948985,0.639645 -11.78125,1.71875 -0.07589,0.11556 -0.175458,0.258359 -0.25,0.375 1.271328,2.382131 2.738416,4.6598 4.3125,6.84375 1.377748,1.911429 2.853304,3.759142 4.40625,5.53125 0.858111,0.978845 1.744467,1.914585 2.65625,2.84375 0.228711,0.233281 0.428504,0.502499 0.65625,0.75 l 0,-3.15625 0,-14.90625 z m 2.59375,0.03125 0,4.53125 0,13.53125 c 0.0303,0 0.03236,-0.02585 0.0625,-0.03125 0.111213,-0.10188 0.232699,-0.17865 0.34375,-0.28125 0.643262,-0.594363 1.293614,-1.186457 1.90625,-1.8125 1.200935,-1.228146 2.361923,-2.494604 3.5,-3.78125 2.292754,-2.592192 4.480069,-5.308786 6.3125,-8.25 0.344759,-0.553502 0.672649,-1.118697 1,-1.6875 -0.225971,-0.06876 -0.460722,-0.121979 -0.6875,-0.1875 -4.062002,-1.174865 -8.22125,-1.847829 -12.4375,-2.03125 z m 15.59375,3.03125 c -2.065976,3.693258 -4.589364,7.090375 -7.375,10.28125 -1.286199,1.473487 -2.614677,2.957564 -4,4.34375 5.112398,-0.792364 10.030451,-2.679966 14.375,-5.5625 2.214423,-1.469167 4.257111,-3.186101 6.09375,-5.09375 -2.935526,-1.516327 -5.97238,-2.866785 -9.09375,-3.96875 z m -31.71875,1.5625 c -1.434234,2.670492 -2.553127,5.530127 -3.5,8.4375 4.038958,2.397072 8.516784,4.008536 13.21875,4.6875 -0.387147,-0.416522 -0.749779,-0.821598 -1.125,-1.25 -2.069686,-2.361792 -4.04067,-4.843508 -5.8125,-7.4375 -0.981272,-1.436767 -1.9198,-2.921533 -2.78125,-4.4375 z m -10.09375,1.8125 c -0.361861,0.183421 -0.734823,0.374399 -1.09375,0.5625 0.67632,0.697323 1.396496,1.359197 2.125,2 -0.29107,-0.874624 -0.640497,-1.726756 -1.03125,-2.5625 z" transform="translate(0,-5e-6)" style="" fill="#000000" fill-opacity="1"/><text x="0" y="115" fill="#000000" font-size="5px" font-weight="bold" font-family="'Helvetica Neue', Helvetica, Arial-Unicode, Arial, Sans-serif">Created by Aha-Soft</text><text x="0" y="120" fill="#000000" font-size="5px" font-weight="bold" font-family="'Helvetica Neue', Helvetica, Arial-Unicode, Arial, Sans-serif">from the Noun Project</text></svg>