<svg xmlns:dc="http://purl.org/dc/elements/1.1/" xmlns:cc="http://creativecommons.org/ns#" xmlns:rdf="http://www.w3.org/1999/02/22-rdf-syntax-ns#" xmlns:svg="http://www.w3.org/2000/svg" xmlns="http://www.w3.org/2000/svg" version="1.1" viewBox="0 0 100.00001 100" xml:space="preserve" x="0px" y="0px"><path d="M 77.625,5 C 68.029933,5 60.25,12.438762 60.25,21.59375 c 0,2.546282 0.584439,4.941668 1.65625,7.09375 4.664692,7.897507 13.386488,12.652286 15.71875,26.875 C 81.609322,41.339786 88.684589,36.585007 93.34375,28.6875 94.418315,26.535418 95,24.145792 95,21.59375 95,12.438762 87.211503,5 77.625,5 z M 46.34375,12.8125 C 38.129383,12.79036 29.916706,15.191865 23,19.90625 c -11.17909,7.619227 -17.9621244,20.484868 -18,34 0.041261,14.722754 8.087686,28.516374 20.875,35.8125 12.942851,7.384866 29.367738,6.970667 42,-0.875 12.522828,-7.778167 19.992454,-22.043446 19.375,-36.75 -0.127458,-3.035883 -0.615707,-6.020847 -1.40625,-8.90625 -0.611028,0.970381 -1.183844,1.986959 -1.71875,3 2.745344,13.815373 -2.266102,28.517022 -13.25,37.53125 -5.685207,4.665605 -12.510045,7.685219 -19.8125,8.625 -7.395776,0.95238 -14.999757,-0.260897 -21.71875,-3.5 C 16.029546,82.425125 7.419001,68.670044 7.375,53.90625 7.399498,45.696623 10.008219,37.527666 14.9375,30.9375 19.278165,25.134475 25.072717,20.568163 31.8125,17.875 c 6.942548,-2.774163 14.671596,-3.447271 22,-1.96875 1.503421,0.3033 2.994221,0.70762 4.4375,1.1875 0.196606,-0.769141 0.421712,-1.516859 0.71875,-2.25 -4.097772,-1.333441 -8.350057,-2.01973 -12.625,-2.03125 z M 77.625,12.90625 c 4.36162,0 7.90625,3.547366 7.90625,7.90625 0,4.358524 -3.54463,7.875 -7.90625,7.875 -4.358848,0 -7.90625,-3.516476 -7.90625,-7.875 0,-4.358884 3.547402,-7.90625 7.90625,-7.90625 z m -32.78125,4.9375 c -4.834511,4.823825 -9.204483,10.119835 -12.375,16.125 4.018147,1.146601 8.14829,1.82435 12.375,1.90625 l 0,-5.3125 0,-12.71875 z m 2.59375,0.125 0,2.21875 0,15.65625 c 4.547776,-0.17532 9.056562,-0.946369 13.40625,-2.28125 -0.4463,-0.768781 -0.92014,-1.536229 -1.40625,-2.28125 -2.337392,-3.583443 -5.073111,-6.936357 -8.125,-9.9375 -1.134204,-1.115102 -2.356876,-2.156889 -3.59375,-3.15625 -0.09961,-0.08046 -0.181159,-0.13883 -0.28125,-0.21875 z m -6.5,0.21875 c -3.022556,0.435601 -5.985452,1.250399 -8.8125,2.4375 -4.506838,1.891982 -8.632023,4.742627 -12.03125,8.28125 3.204847,1.698482 6.497675,3.168959 9.90625,4.3125 2.875402,-5.548864 6.655989,-10.484265 10.9375,-15.03125 z m 10.78125,0.03125 c 2.302303,2.062082 4.391018,4.393298 6.3125,6.8125 -0.297729,-1.468261 -0.421051,-3.003769 -0.3125,-4.53125 0.01154,-0.264241 0.03849,-0.51935 0.0625,-0.78125 -1.38489,-0.474661 -2.808803,-0.85655 -4.25,-1.15625 -0.606026,-0.126 -1.201477,-0.24961 -1.8125,-0.34375 z M 18.3125,30.875 c -0.739801,0.893701 -1.416983,1.820049 -2.0625,2.78125 -3.792175,5.645884 -5.929295,12.191924 -6.1875,18.96875 l 2.71875,0 12.03125,0 c 0.01837,-0.865801 0.042,-1.727589 0.125,-2.59375 C 25.366876,45.545826 26.499455,41.153144 28.25,37 28.457276,36.5077 28.653866,36.01419 28.875,35.53125 25.245453,34.286728 21.71205,32.706142 18.3125,30.875 z m 43.75,4.96875 C 60.730371,36.27215 59.402545,36.67996 58.03125,37 54.560137,37.810001 51.006284,38.310599 47.4375,38.4375 l 0,7.375 0,6.8125 19.0625,0 c -0.07833,-3.266283 -0.566444,-6.502827 -1.53125,-9.65625 -0.752052,-2.457722 -1.739489,-4.841338 -2.90625,-7.125 z m -30.75,0.46875 c -0.765429,1.662482 -1.437331,3.384688 -2,5.15625 -1.149354,3.620703 -1.841759,7.363106 -1.9375,11.15625 l 11.90625,0 5.5625,0 0,-14.15625 c -0.463545,-0.009 -0.911778,-0.04054 -1.375,-0.0625 C 39.30812,38.210049 35.246192,37.474582 31.3125,36.3125 z m 34.53125,1.5625 c 1.087725,2.554923 1.955048,5.201317 2.5,7.9375 0.447279,2.246042 0.698268,4.528658 0.75,6.8125 l 0.65625,0 4.6875,0 C 73.092575,47.009895 69.549005,42.262504 65.84375,37.875 z M 82.0625,50.59375 c -0.283933,0.67464 -0.580608,1.346529 -0.84375,2.03125 l 0.96875,0 c -0.02691,-0.680221 -0.06042,-1.35391 -0.125,-2.03125 z m -72,4.59375 c 0.157147,4.227665 1.029024,8.415426 2.625,12.34375 1.400469,3.447003 3.343339,6.608147 5.6875,9.40625 0.587976,-0.31842 1.154771,-0.63258 1.75,-0.9375 2.902479,-1.485001 5.903644,-2.753089 8.96875,-3.78125 -1.231878,-2.687582 -2.22558,-5.467887 -2.9375,-8.34375 -0.704827,-2.847063 -1.174532,-5.768977 -1.3125,-8.6875 l -3.21875,0 -11.5625,0 z m 17.34375,0 c 0.214688,4.500545 1.233106,8.986295 2.84375,13.1875 0.397464,1.036981 0.843476,2.055399 1.3125,3.0625 4.323095,-1.242902 8.756037,-1.98467 13.28125,-2.09375 l 0,-8.15625 0,-6 -17.4375,0 z m 20.03125,0 0,14.1875 c 0.53801,0.0162 1.054129,0.02884 1.59375,0.0625 4.30472,0.26982 8.654631,1.099809 12.78125,2.40625 2.479549,-4.840025 4.242043,-10.104675 4.625,-15.5 0.02708,-0.3798 0.04638,-0.776989 0.0625,-1.15625 l -14.375,0 -4.6875,0 z m 21.625,0 c -0.07011,1.610282 -0.226166,3.218599 -0.5,4.8125 -0.761223,4.430345 -2.321477,8.669896 -4.3125,12.6875 1.874007,0.688141 3.682744,1.481799 5.5,2.3125 1.383896,0.632341 2.817681,1.238919 4.1875,1.9375 2.192691,-2.638803 4.004676,-5.588296 5.375,-8.75 1.801802,-4.156924 2.738938,-8.571995 2.875,-13 l -1.90625,0 C 79.128061,58.505084 78.167297,61.900377 77.21875,65.25 76.306113,61.937277 75.710317,58.542524 75,55.1875 l -5.9375,0 z M 44.84375,71.90625 c -4.154022,0.02286 -8.213209,0.703629 -12.15625,1.84375 1.302314,2.470682 2.809126,4.834388 4.4375,7.09375 1.377743,1.911422 2.853309,3.759148 4.40625,5.53125 0.858108,0.978841 1.74447,1.914589 2.65625,2.84375 0.22871,0.233281 0.428505,0.5025 0.65625,0.75 l 0,-3.15625 0,-14.90625 z m 2.59375,0.03125 0,4.53125 0,13.53125 c 0.0303,0 0.03236,-0.02765 0.0625,-0.03125 0.111213,-0.10242 0.232699,-0.17865 0.34375,-0.28125 0.643259,-0.594361 1.293616,-1.186459 1.90625,-1.8125 1.200931,-1.228141 2.361927,-2.494608 3.5,-3.78125 2.292745,-2.592182 4.480077,-5.308797 6.3125,-8.25 0.344758,-0.553501 0.67265,-1.118699 1,-1.6875 -0.22597,-0.06876 -0.460723,-0.12198 -0.6875,-0.1875 -4.061987,-1.174861 -8.221266,-1.84783 -12.4375,-2.03125 z m -17.21875,2.59375 c -3.466922,1.180081 -6.847804,2.672378 -10.09375,4.375 5.550779,5.722385 12.939101,9.599619 20.90625,10.75 -0.387146,-0.416521 -0.749781,-0.8216 -1.125,-1.25 -2.069679,-2.361783 -4.040677,-4.843517 -5.8125,-7.4375 -1.413846,-2.070182 -2.721776,-4.206398 -3.875,-6.4375 z m 32.8125,0.4375 c -2.065968,3.693244 -4.589375,7.090387 -7.375,10.28125 -1.286195,1.473482 -2.614682,2.957568 -4,4.34375 5.112379,-0.792361 10.030467,-2.679977 14.375,-5.5625 2.214415,-1.469161 4.257118,-3.186108 6.09375,-5.09375 -2.935515,-1.516321 -5.972392,-2.866789 -9.09375,-3.96875 z" transform="translate(0,-5e-6)" style="" fill="#000000" fill-opacity="1"></path></svg>